<svg xmlns="http://www.w3.org/2000/svg" version="1.1" xmlns:xlink="http://www.w3.org/1999/xlink" xmlns:svgjs="http://svgjs.dev/svgjs" width="1920" height="1080" preserveAspectRatio="none" viewBox="0 0 1920 1080">
    <g mask="url(&quot;#SvgjsMask1079&quot;)" fill="none">
        <path d="M -605.6703214472786,503 C -413.67,516.6 -29.67,609 354.32967855272136,571 C 738.33,533 930.33,223.8 1314.3296785527214,313 C 1698.33,402.2 2153.2,1063.4 2274.3296785527214,1017 C 2395.46,970.6 1990.87,268.2 1920,81" stroke="rgba(225, 242, 254, 1)" stroke-width="2"></path>
        <path d="M -1.47211381617376,610 C 190.53,543.6 574.53,202.6 958.5278861838262,278 C 1342.53,353.4 1534.53,958.4 1918.5278861838262,987 C 2302.53,1015.6 2878.23,464.6 2878.527886183826,421 C 2878.82,377.4 2111.71,699.4 1920,769" stroke="rgba(225, 242, 254, 1)" stroke-width="2"></path>
        <path d="M -452.868123848522,370 C -260.87,475.2 123.13,927.6 507.131876151478,896 C 891.13,864.4 1083.13,239.4 1467.131876151478,212 C 1851.13,184.6 2336.56,772 2427.131876151478,759 C 2517.71,746 2021.43,269.4 1920,147" stroke="rgba(225, 242, 254, 1)" stroke-width="2"></path>
        <path d="M -577.1098672570012,195 C -385.11,297.2 -1.11,737.6 382.89013274299884,706 C 766.89,674.4 958.89,-6.2 1342.890132742999,37 C 1726.89,80.2 2187.47,840 2302.890132742999,922 C 2418.31,1004 1996.58,542 1920,447" stroke="rgba(225, 242, 254, 1)" stroke-width="2"></path>
        <path d="M -1723.4918519770395,884 C -1531.49,714.8 -1147.49,21.8 -763.4918519770396,38 C -379.49,54.2 -187.49,955.2 196.50814802296043,965 C 580.51,974.8 811.81,132.6 1156.5081480229605,87 C 1501.21,41.4 1767.3,607 1920,737" stroke="rgba(225, 242, 254, 1)" stroke-width="2"></path>
        <path d="M -1834.4577088120955,80 C -1642.46,209.2 -1258.46,655.6 -874.4577088120953,726 C -490.46,796.4 -298.46,415.6 85.54229118790465,432 C 469.54,448.4 678.65,886 1045.5422911879045,808 C 1412.43,730 1745.11,195.2 1920,42" stroke="rgba(225, 242, 254, 1)" stroke-width="2"></path>
        <path d="M -267.4140133135519,470 C -75.41,579.4 308.59,1068.6 692.5859866864481,1017 C 1076.59,965.4 1268.59,304 1652.585986686448,212 C 2036.59,120 2559.1,525.6 2612.585986686448,557 C 2666.07,588.4 2058.52,406.6 1920,369" stroke="rgba(225, 242, 254, 1)" stroke-width="2"></path>
        <path d="M -1489.3982643042357,44 C -1297.4,154.8 -913.4,508.4 -529.3982643042357,598 C -145.4,687.6 46.6,490.8 430.6017356957643,492 C 814.6,493.2 1092.72,667 1390.6017356957643,604 C 1688.48,541 1814.12,262.4 1920,177" stroke="rgba(225, 242, 254, 1)" stroke-width="2"></path>
        <path d="M -588.3246424272324,877 C -396.32,743 -12.32,222.4 371.6753575727676,207 C 755.68,191.6 947.68,833.4 1331.6753575727676,800 C 1715.68,766.6 2174.01,16.2 2291.6753575727676,40 C 2409.34,63.8 1994.34,743.2 1920,919" stroke="rgba(225, 242, 254, 1)" stroke-width="2"></path>
    </g>
    <defs>
        <mask id="SvgjsMask1079">
            <rect width="1920" height="1080" fill="#ffffff"></rect>
        </mask>
    </defs>
</svg>