<svg id="visual" viewBox="0 0 960 540" width="960" height="540" xmlns="http://www.w3.org/2000/svg" xmlns:xlink="http://www.w3.org/1999/xlink" version="1.1"><g transform="translate(518.5266955640229 264.5926092409387)"><path d="M103.6 -142.7C130.3 -123.1 145.4 -87.6 156.5 -51.4C167.6 -15.1 174.6 22 166.7 56.5C158.7 91.1 135.8 123.2 105.5 144.1C75.2 164.9 37.6 174.4 -0.5 175.1C-38.6 175.8 -77.2 167.6 -120 150.8C-162.8 134.1 -209.8 108.7 -232 68.7C-254.2 28.6 -251.7 -26.2 -226.3 -63.9C-200.8 -101.7 -152.4 -122.5 -110.9 -137.3C-69.4 -152.1 -34.7 -161.1 1.9 -163.6C38.4 -166.2 76.8 -162.4 103.6 -142.7" fill="#c40e20"></path></g></svg>